<?xml version="1.0" encoding="utf-8"?>
<!-- Generator: Adobe Illustrator 23.0.1, SVG Export Plug-In . SVG Version: 6.00 Build 0)  -->
<svg version="1.1" id="_x32_" xmlns="http://www.w3.org/2000/svg" xmlns:xlink="http://www.w3.org/1999/xlink" x="0px" y="0px"
	 viewBox="0 0 512 512" style="enable-background:new 0 0 512 512;" xml:space="preserve">
<style type="text/css">
	.st0{fill:#FFFFFF;}
</style>
<g>
	<path class="st0" d="M486.6,115.4c-3.1-6.7-8.3-12-14.6-15.5c-6.3-3.5-13.7-5.3-21.5-5.3c-13.6,0-28.6,5.5-41.8,17.2
		c-11,9.7-20.7,23.8-27.8,42.5V16.4c0-9-7.3-16.4-16.4-16.4H135c-9,0-16.4,7.3-16.4,16.4v134l-34.6-13c-5.3-2-10.7-2.9-16.1-2.9
		c-9.2,0-18.2,2.8-25.7,7.9c-7.5,5.1-13.6,12.5-17,21.6c-2,5.3-2.9,10.7-2.9,16.1c0,9.2,2.8,18.2,7.9,25.7
		c5.1,7.5,12.5,13.6,21.6,17l30.7,11.6c-1.9,0.9-3.7,2-5.5,3.2c-7.1,4.8-12.9,11.9-16.1,20.5c-1.9,5-2.8,10.1-2.8,15.2
		c0,8.8,2.6,17.2,7.5,24.3c4.8,7.1,11.9,12.8,20.5,16.1l2.3,0.8c-0.8,0.5-1.7,1-2.5,1.6c-7.1,4.8-12.9,11.8-16.1,20.5
		c-1.9,5-2.8,10.1-2.8,15.2c0,8.8,2.6,17.2,7.5,24.3c4.8,7.1,11.8,12.9,20.5,16.1l2.3,0.9c-0.9,0.5-1.7,1-2.6,1.6
		c-7.1,4.8-12.9,11.8-16.1,20.5c-1.9,5-2.8,10.2-2.8,15.2c0,8.7,2.6,17.2,7.5,24.3c4.8,7.1,11.9,12.9,20.5,16.1l29.5,11.1
		c5,1.9,10.1,2.8,15.2,2.8c7.1,0,13.9-1.8,20.1-5c9.3,6.4,20.1,12.4,32.6,17.5c20.4,8.3,45,14.1,74.4,14.8c1.9,0,3.7,0.1,5.5,0.1
		c28.6,0,52.5-5.5,72.4-15.4c14.9-7.5,27.4-17.4,37.9-29.1c15.8-17.6,27-39.1,35.5-62.7c8.4-23.5,14.2-49,18.8-75
		c0.1-0.5,0.7-3.2,1.7-7.6c3.8-17.2,13.4-60.2,22.3-99.9c4.4-19.9,8.7-38.9,12.1-53.5c1.7-7.3,3.1-13.5,4.1-18.1
		c0.5-2.3,1-4.2,1.3-5.6c0.3-1.4,0.6-2.4,0.7-2.7c1.2-4.2,1.8-8.2,1.8-12.1C489.7,124.9,488.6,119.9,486.6,115.4z M57.6,207.4
		c-5.9-2.2-10.6-6.1-13.9-10.9c-3.3-4.8-5.1-10.6-5.1-16.5c0-3.4,0.6-6.9,1.9-10.3c2.2-5.9,6.1-10.6,10.9-13.9
		c4.8-3.3,10.6-5.1,16.5-5.1c3.4,0,6.9,0.6,10.3,1.9l40.4,15.2v62.5L57.6,207.4z M79.2,288.3c-3-4.4-4.7-9.7-4.7-15.1
		c0-3.1,0.6-6.3,1.7-9.5c2-5.4,5.6-9.7,10-12.7c4.4-3,9.7-4.7,15.1-4.7c3.1,0,6.3,0.6,9.4,1.7h0l7.7,2.9l21.8,8.2
		c4,1.5,7.4,3.9,10.2,6.8c0.9,1,1.8,2.1,2.6,3.2c3,4.4,4.6,9.7,4.6,15.1c0,3.1-0.6,6.3-1.7,9.5c-1.3,3.4-3.1,6.3-5.5,8.8
		c-1.4,1.5-2.9,2.8-4.6,3.9c-4.4,3-9.7,4.7-15.1,4.7c-3.1,0-6.3-0.6-9.5-1.7l-2.8-1.1l-26.7-10C86.6,296.2,82.2,292.7,79.2,288.3z
		 M88.1,366.8c-3-4.4-4.6-9.7-4.6-15.1c0-3.1,0.6-6.3,1.7-9.4c2-5.4,5.5-9.7,10-12.8c4.4-3,9.7-4.7,15.1-4.7c2.8,0,5.5,0.4,8.3,1.4
		c0.4,0.1,0.8,0.3,1.1,0.4l29.5,11.1c0.5,0.2,0.9,0.3,1.3,0.5c4.8,2.1,8.7,5.4,11.4,9.4c3,4.4,4.7,9.7,4.7,15.2
		c0,3.1-0.6,6.3-1.7,9.4c0,0,0,0.1,0,0.1c-2,5.4-5.6,9.7-10,12.6c-4.4,3-9.7,4.7-15.1,4.7c-3.1,0-6.3-0.6-9.4-1.7l-11.7-4.4
		l-17.8-6.7C95.4,374.8,91.1,371.3,88.1,366.8z M174.1,449.8c-0.1,0.4-0.2,0.8-0.4,1.1c-2,5.4-5.6,9.7-10,12.7
		c-4.4,3-9.7,4.7-15.1,4.7c-3.1,0-6.3-0.6-9.5-1.7l-29.5-11.1c-5.4-2-9.7-5.6-12.7-10c-3-4.4-4.7-9.7-4.7-15.1
		c0-3.1,0.6-6.4,1.7-9.5c2-5.4,5.6-9.8,10-12.8c4.3-2.9,9.4-4.5,14.7-4.6h0.5c3.1,0,6.3,0.5,9.5,1.7l1.3,0.5l28.2,10.6
		c5.4,2.1,9.7,5.6,12.8,10c3,4.4,4.7,9.7,4.7,15.1C175.4,444.2,175,447,174.1,449.8z M155.1,322.4l-2.4-0.9c0.8-0.5,1.7-1,2.5-1.6
		c7.1-4.8,12.9-11.9,16.1-20.5c1.9-5,2.8-10.2,2.8-15.2c0-8.8-2.6-17.2-7.5-24.3c-4-5.8-9.4-10.8-16.1-14.2V49.1h199v321.7H182.2
		c0.5-2.6,0.8-5.3,0.8-7.9c0-8.8-2.6-17.2-7.5-24.3C170.7,331.4,163.7,325.6,155.1,322.4z M261.2,404.3c0,6.3-5.1,11.5-11.5,11.5
		c-6.3,0-11.5-5.1-11.5-11.5c0-6.3,5.1-11.4,11.5-11.4C256.1,392.9,261.2,398,261.2,404.3z M472.2,137.9c-0.3,0.9-0.6,2.1-1,4
		c-1.7,6.9-5.1,21.9-9.3,40.5c-12.6,55.7-32.1,144.1-32.1,144.1l0,0.2l0,0.2c-4,22.7-8.9,44.8-15.5,65c-5,15.2-10.9,29.3-18.3,41.8
		c-11,18.8-24.9,34.2-43.3,44.9c-18.4,10.7-41.5,17.1-71.4,17.1c-1.7,0-3.4,0-5.1-0.1c-27.5-0.7-50.1-6-68.6-13.6
		c-9.5-3.9-18-8.4-25.5-13.2c2.9-3.6,5.4-7.7,7.1-12.2c0.9-2.2,1.5-4.6,1.9-6.9c0.3-1.6,0.6-3.2,0.7-4.8l172.9,1.5
		c9,0,16.4-7.3,16.4-16.3V211.9c3-10.4,6.8-23.9,11.8-41.3c6.4-22.4,16.3-37.3,26.9-46.6c10.5-9.3,21.7-13,31-13
		c7.1,0,12.9,2.2,16.8,5.5c1.9,1.7,3.4,3.6,4.5,5.9c1,2.3,1.6,4.8,1.7,7.9C473.4,132.5,473,135.1,472.2,137.9z"/>
</g>
</svg>
