<?xml version="1.0" encoding="utf-8"?>
<!-- Generator: Adobe Illustrator 23.0.1, SVG Export Plug-In . SVG Version: 6.00 Build 0)  -->
<svg version="1.1" id="_x32_" xmlns="http://www.w3.org/2000/svg" xmlns:xlink="http://www.w3.org/1999/xlink" x="0px" y="0px"
	 viewBox="0 0 512 512" style="enable-background:new 0 0 512 512;" xml:space="preserve">
<style type="text/css">
	.st0{fill:#FFFFFF;}
</style>
<g>
	<path class="st0" d="M335.9,68.9c0,0,4.7-12.5,29.7-28.3c24.1-15.2,5.6-36.1-29.7-28.4C311.5,17.5,319.8,0,285.5,0
		c-34.2,0-25.9,17.5-50.3,12.2c-35.3-7.7-53.8,13.3-29.7,28.4c25.1,15.8,29.7,28.3,29.7,28.3H335.9z"/>
	<path class="st0" d="M432.9,288.3c-5.5,3.2-11.8,5.1-18.6,5.1h-59.4c-20.3,0-36.8-16.5-36.8-36.8c0-5.7,1.3-11.2,3.8-16.1
		c-2.4-4.9-3.8-10.4-3.8-16.1c0-5.7,1.3-11.2,3.8-16.1c-2.4-4.9-3.8-10.4-3.8-16.1c0-5.7,1.3-11.2,3.8-16.1
		c-2.4-4.9-3.8-10.4-3.8-16.1c0-4,0.6-7.8,1.8-11.4h-36.8c-1.7,18.8-8,47.1-28.6,71.8c-22.5,26.8-55.9,42.5-99.3,46.8
		c-14.1,27.4-24.2,56.9-24.2,86.6c0,87.3,70.8,158.1,158.1,158.1c87.3,0,158.1-70.8,158.1-158.1
		C447.3,331.6,441.6,309.5,432.9,288.3z M334,411.4c-2.4,4.5-5.7,8.3-9.9,11.3s-9.2,5.3-15,6.8c-2.5,0.7-5.2,1.1-7.9,1.5v17H281
		v-16.6c-5.8-0.5-11.3-1.4-16.5-2.8c-7.9-2.2-18.3-10.9-18.3-10.9c-0.9-0.5-1.5-1.4-1.6-2.4c-0.1-1,0.2-2,0.9-2.8l10.1-10.1
		c1.1-1.1,2.8-1.3,4.1-0.5c0,0,7.6,6.6,13.3,8.2c5.8,1.6,11.5,2.4,17.1,2.4c7.2,0,13.1-1.3,17.8-3.8c4.7-2.6,7.1-6.5,7.1-11.9
		c0-3.9-1.1-6.9-3.5-9.2c-2.3-2.3-6.2-3.7-11.8-4.3l-18.2-1.6c-10.8-1.1-19.1-4.1-24.9-9c-5.8-4.9-8.8-12.4-8.8-22.4
		c0-5.5,1.1-10.5,3.4-14.8c2.3-4.3,5.3-8,9.2-11c3.9-3,8.4-5.2,13.6-6.7c2.1-0.6,4.4-1,6.7-1.4v-14.6h20.2V316
		c4.7,0.5,9.2,1.2,13.4,2.4c7.1,1.9,14.5,7.8,14.5,7.8c0.9,0.5,1.6,1.4,1.7,2.4c0.2,1-0.2,2.1-0.9,2.8l-9.5,9.7
		c-1,1-2.6,1.3-3.9,0.6c0,0-5.6-4-10.5-5.3c-4.9-1.3-10-1.9-15.4-1.9c-7,0-12.2,1.4-15.6,4s-5,6.2-5,10.5c0,3.9,1.2,6.9,3.6,9
		c2.4,2.1,6.4,3.5,12.1,4l15.9,1.4c11.8,1,20.7,4.2,26.8,9.4c6,5.2,9.1,12.8,9.1,22.9C337.6,401.7,336.4,407,334,411.4z"/>
	<path class="st0" d="M432.1,224.5c0-7.1-4.2-13.3-10.3-16.1c6.1-2.8,10.3-9,10.3-16.1c0-7.2-4.2-13.3-10.3-16.1
		c6.1-2.8,10.3-9,10.3-16.1c0-9.8-8-17.8-17.8-17.8h-59.4c-9.8,0-17.8,8-17.8,17.8c0,7.2,4.3,13.3,10.3,16.1
		c-6.1,2.8-10.3,9-10.3,16.1c0,7.1,4.3,13.3,10.3,16.1c-6.1,2.8-10.3,9-10.3,16.1c0,7.2,4.3,13.3,10.3,16.1
		c-6.1,2.8-10.3,9-10.3,16.1c0,9.8,8,17.8,17.8,17.8h59.4c9.8,0,17.8-8,17.8-17.8c0-7.2-4.3-13.3-10.3-16.1
		C427.8,237.8,432.1,231.6,432.1,224.5z"/>
	<path class="st0" d="M346.2,89.6c-20,0-113.2,0-113.2,0c-49,0-62.7,38.3-100.6,38.3v121.6l16.6-0.8
		c126.7-9.8,115.6-119.2,115.6-119.2s31.1,0,71.1,0C375.7,129.7,377.8,89.6,346.2,89.6z"/>
	<rect x="64.7" y="113.8" class="st0" width="50.6" height="164.3"/>
</g>
</svg>
